<svg id="Layer_1" data-name="Layer 1" xmlns="http://www.w3.org/2000/svg" viewBox="0 0 640 640">
  <defs>
    <style>
      .cls-1 {
        fill: #c2f52f;
      }
    </style>
  </defs>
  <rect x="0" y="0" width="640" height="640" rx="78.79" ry="78.79"/>
  <path class="cls-1" d="M149.22,138.19c-17.18,0-33.7,7.8-43.77,21.72-12.68,17.54-13.74,39.76-3.16,58.08l3.07,5.32,13.34,23.1H19.74l8.56,14.83c16.68,28.9,47.52,46.7,80.89,46.7h45.49l46.55,80.63h-78.66l8.57,14.84c16.69,28.9,47.52,46.7,80.88,46.7h25.18l38.38,67.62c9.59,16.6,26.76,26.51,45.93,26.51s36.34-9.91,45.93-26.51l50.36-86.72h-205.32c-19.62,0-38.24-7.83-51.96-21.22h192.85c47.29,0,90.99-25.23,114.64-66.18l32.84-56.89H109.25c-19.62,0-38.24-7.83-51.95-21.22h377.83c46.65,0,90.13-25.1,113.46-65.51l35.69-61.81H149.22Z"/>
</svg>
