<svg data-v-1032dfbc="" class="max-w-[130px] h-full" xmlns="http://www.w3.org/2000/svg" viewBox="0 0 1445.64 191.36"><path data-v-1032dfbc="" fill="#000" d="M338.71,109.95h48.5v-20.17h-48.5v-28.86h57.37v-20.51h-79.62v121.69h80.32v-20.51h-58.06v-31.64ZM416.24,162.1h21.56V40.41h-21.56v121.69ZM521.24,83.4c-1.78-2.65-3.91-5.05-6.43-7.18-2.9-2.43-6.26-4.32-10.08-5.65-3.82-1.33-8.06-2-12.69-2-8,0-15.18,2.03-21.56,6.09-6.38,4.06-11.42,9.68-15.12,16.86-3.71,7.19-5.56,15.36-5.56,24.51s1.85,17.33,5.56,24.51c3.71,7.19,8.63,12.86,14.78,17.04,6.14,4.17,12.98,6.26,20.51,6.26,4.4,0,8.55-.7,12.43-2.09,3.88-1.39,7.41-3.22,10.6-5.48,2.9-2.06,5.35-4.42,7.39-7.06v12.88h21.73v-91.62h-21.56v12.91ZM518.72,131.07c-2.14,4.35-5.13,7.74-8.95,10.17-3.82,2.43-8.23,3.65-13.21,3.65s-9.36-1.22-13.13-3.65c-3.77-2.43-6.69-5.82-8.78-10.17-2.08-4.35-3.13-9.36-3.13-15.04s1.04-10.49,3.13-14.78c2.09-4.29,5.01-7.65,8.78-10.08,3.77-2.43,8.14-3.65,13.13-3.65s9.39,1.22,13.21,3.65c3.83,2.43,6.81,5.8,8.95,10.08,2.14,4.29,3.22,9.21,3.22,14.78s-1.07,10.69-3.22,15.04M621.9,118.99c-2.2-2.43-5.22-4.58-9.04-6.43-3.82-1.85-8.58-3.53-14.25-5.04-4.06-.93-7.36-1.91-9.91-2.96-2.55-1.04-4.46-1.97-5.74-2.78-1.16-.81-2.06-1.83-2.69-3.04-.64-1.22-1.02-2.52-1.13-3.91,0-1.62.32-3.04.96-4.26.64-1.22,1.54-2.23,2.7-3.04,1.16-.81,2.61-1.42,4.35-1.83,1.74-.4,3.71-.61,5.91-.61,2.32,0,4.81.49,7.48,1.48,2.66.99,5.3,2.29,7.91,3.91,2.61,1.62,5.01,3.48,7.21,5.56l11.82-13.04c-2.67-3.01-5.88-5.59-9.65-7.74-3.77-2.14-7.82-3.8-12.17-4.96-4.35-1.16-8.84-1.74-13.47-1.74s-8.87.64-13.04,1.91c-4.17,1.28-7.82,3.13-10.95,5.56-3.13,2.43-5.59,5.3-7.39,8.6-1.8,3.3-2.69,6.98-2.69,11.04,0,3.25.49,6.26,1.48,9.04.98,2.78,2.46,5.28,4.43,7.48,2.32,2.67,5.56,5.07,9.73,7.21,4.17,2.15,9.39,4.03,15.65,5.65,3.94.93,7.15,1.85,9.65,2.78,2.49.93,4.32,1.8,5.48,2.61,2.09,1.63,3.13,3.82,3.13,6.61,0,1.51-.32,2.87-.96,4.09-.64,1.22-1.54,2.29-2.69,3.22-1.16.93-2.52,1.62-4.09,2.09-1.56.47-3.33.69-5.3.69-4.75,0-9.28-.87-13.56-2.61-4.29-1.74-8.17-4.58-11.65-8.52l-13.91,12c4.05,5.1,9.3,9.01,15.73,11.73,6.43,2.72,13.7,4.09,21.82,4.09,6.61,0,12.55-1.22,17.82-3.65,5.27-2.43,9.44-5.79,12.52-10.08,3.07-4.29,4.61-9.15,4.61-14.6,0-3.36-.47-6.43-1.39-9.21-.93-2.78-2.49-5.21-4.69-7.3M668.06,47.19h-21.38v23.29h-13.3v19.82h13.3v51.87c0,11,8.92,19.92,19.92,19.92h21.45v-19.82h-19.99v-51.98h19.99v-19.82h-19.99v-23.29ZM716.81,26.16c-4.17,0-7.48,1.16-9.91,3.48-2.43,2.32-3.65,5.33-3.65,9.04,0,3.94,1.19,6.98,3.56,9.13,2.38,2.15,5.71,3.22,10,3.22s7.65-1.16,10.08-3.48c2.43-2.32,3.65-5.27,3.65-8.87,0-4.05-1.19-7.15-3.56-9.3-2.38-2.14-5.77-3.22-10.17-3.22M706.38,162.1h21.38v-91.62h-21.38v91.62ZM777.4,91.26c4-2.49,8.55-3.74,13.65-3.74,3.01,0,6.02.58,9.04,1.74,3.01,1.16,5.85,2.72,8.52,4.69,2.66,1.97,4.87,4.17,6.61,6.61l11.82-14.25c-3.71-5.56-8.93-9.91-15.65-13.04-6.72-3.13-14.2-4.69-22.43-4.69s-16.28,2.09-23.12,6.26c-6.84,4.17-12.23,9.85-16.17,17.04-3.94,7.19-5.91,15.3-5.91,24.34s1.97,17.15,5.91,24.34c3.94,7.19,9.33,12.86,16.17,17.04,6.84,4.17,14.54,6.26,23.12,6.26,7.65,0,14.92-1.59,21.82-4.78,6.89-3.19,12.31-7.33,16.25-12.43l-11.82-14.43c-2.2,2.78-4.58,5.1-7.13,6.95-2.55,1.85-5.25,3.28-8.08,4.26-2.84.99-5.77,1.48-8.78,1.48-4.98,0-9.51-1.27-13.56-3.83-4.06-2.55-7.28-5.97-9.65-10.26-2.38-4.29-3.56-9.15-3.56-14.6s1.16-10.34,3.48-14.69c2.32-4.35,5.48-7.76,9.47-10.26M852.41,40.41h-10.43v121.69h22.6v-49.89h50.59v-20.51h-50.59v-30.42h58.06v-20.86h-70.23ZM997.04,125.42c0,2.9-.52,5.59-1.56,8.08-1.04,2.49-2.49,4.64-4.35,6.43-1.86,1.8-4.03,3.19-6.52,4.17-2.49.99-5.24,1.48-8.26,1.48-4.06,0-7.53-.93-10.43-2.78-2.9-1.85-5.1-4.49-6.61-7.91-1.51-3.42-2.26-7.56-2.26-12.43v-51.98h-21.38v56.5c0,7.65,1.27,14.23,3.82,19.73,2.55,5.5,6.26,9.74,11.13,12.69,4.87,2.96,10.6,4.43,17.21,4.43,5.1,0,9.91-1.02,14.43-3.04,4.52-2.03,8.43-4.75,11.73-8.17,1.26-1.3,2.34-2.7,3.32-4.15l.25,13.62h20.86v-91.62h-21.38v54.94ZM1105.96,72.75c-4.69-2.78-10.52-4.17-17.47-4.17-4.87,0-9.62,1.04-14.26,3.13-4.64,2.09-8.64,4.84-11.99,8.26-1.09,1.11-2.03,2.28-2.89,3.47l-.24-12.95h-20.86v91.62h21.38v-55.28c0-2.78.55-5.33,1.65-7.65,1.1-2.32,2.61-4.37,4.52-6.17,1.91-1.79,4.17-3.18,6.78-4.17,2.61-.98,5.48-1.48,8.6-1.48,3.83-.11,7.07.55,9.74,2,2.66,1.45,4.63,3.71,5.91,6.78,1.27,3.07,1.91,6.93,1.91,11.56v54.41h21.38v-55.98c0-8.34-1.19-15.3-3.56-20.86-2.38-5.56-5.91-9.74-10.6-12.52M1206.61,72.75c-4.7-2.78-10.52-4.17-17.47-4.17-4.87,0-9.62,1.04-14.26,3.13-4.64,2.09-8.64,4.84-11.99,8.26-1.09,1.11-2.03,2.28-2.89,3.47l-.24-12.95h-20.86v91.62h21.38v-55.28c0-2.78.55-5.33,1.65-7.65,1.1-2.32,2.61-4.37,4.52-6.17,1.91-1.79,4.17-3.18,6.78-4.17,2.61-.98,5.47-1.48,8.6-1.48,3.82-.11,7.07.55,9.74,2,2.66,1.45,4.63,3.71,5.91,6.78,1.27,3.07,1.91,6.93,1.91,11.56v54.41h21.38v-55.98c0-8.34-1.19-15.3-3.56-20.86-2.38-5.56-5.91-9.74-10.6-12.52M1310.83,81.35c-3.83-4-8.35-7.15-13.56-9.48-5.21-2.32-10.84-3.48-16.86-3.48-6.84,0-13.13,1.19-18.86,3.56-5.74,2.38-10.66,5.74-14.78,10.08-4.11,4.35-7.33,9.47-9.65,15.39-2.32,5.91-3.48,12.46-3.48,19.64,0,9.04,2.05,17.07,6.17,24.08,4.11,7.01,9.85,12.55,17.21,16.6,7.36,4.06,15.85,6.08,25.47,6.08,4.29,0,8.63-.58,13.04-1.74,4.4-1.16,8.6-2.75,12.6-4.78,4-2.03,7.56-4.49,10.69-7.39l-10.6-14.78c-4.17,3.59-8.06,6.08-11.65,7.48-3.59,1.39-7.53,2.08-11.82,2.08-6.14,0-11.5-1.19-16.08-3.56-4.58-2.37-8.11-5.76-10.6-10.17-1.67-2.95-2.73-6.28-3.28-9.91h67.52l.17-7.47c.11-6.49-.84-12.49-2.87-17.99-2.03-5.5-4.95-10.26-8.78-14.26M1301.62,106.47h-46.4c.49-2.32,1.16-4.45,2.07-6.35,1.97-4.11,4.89-7.27,8.78-9.47,3.88-2.2,8.66-3.3,14.34-3.3,3.71,0,7.1.78,10.17,2.35,3.07,1.56,5.59,3.71,7.56,6.43,1.97,2.72,3.13,5.88,3.48,9.47v.87ZM1336.39,162.1h21.56V33.46h-21.56v128.64ZM1442.08,126.29c-.93-2.78-2.5-5.21-4.69-7.3-2.2-2.43-5.22-4.58-9.04-6.43-3.83-1.85-8.58-3.53-14.26-5.04-4.06-.93-7.36-1.91-9.91-2.96-2.55-1.04-4.46-1.97-5.74-2.78-1.16-.81-2.06-1.83-2.69-3.04-.64-1.22-1.02-2.52-1.13-3.91,0-1.62.32-3.04.96-4.26.64-1.22,1.53-2.23,2.69-3.04,1.16-.81,2.61-1.42,4.35-1.83,1.74-.4,3.71-.61,5.91-.61,2.32,0,4.81.49,7.48,1.48,2.66.99,5.3,2.29,7.91,3.91,2.61,1.62,5.01,3.48,7.21,5.56l11.82-13.04c-2.67-3.01-5.88-5.59-9.65-7.74-3.77-2.14-7.82-3.8-12.17-4.96-4.35-1.16-8.84-1.74-13.47-1.74s-8.87.64-13.04,1.91c-4.17,1.28-7.82,3.13-10.95,5.56-3.13,2.43-5.59,5.3-7.39,8.6-1.8,3.3-2.7,6.98-2.7,11.04,0,3.25.49,6.26,1.48,9.04.98,2.78,2.46,5.28,4.43,7.48,2.32,2.67,5.56,5.07,9.74,7.21,4.17,2.15,9.39,4.03,15.65,5.65,3.94.93,7.15,1.85,9.65,2.78,2.49.93,4.32,1.8,5.48,2.61,2.09,1.63,3.13,3.82,3.13,6.61,0,1.51-.32,2.87-.96,4.09-.64,1.22-1.54,2.29-2.69,3.22-1.16.93-2.52,1.62-4.08,2.09-1.56.47-3.33.69-5.3.69-4.75,0-9.27-.87-13.56-2.61-4.29-1.74-8.17-4.58-11.65-8.52l-13.91,12c4.06,5.1,9.3,9.01,15.73,11.73,6.43,2.72,13.7,4.09,21.82,4.09,6.61,0,12.55-1.22,17.82-3.65,5.27-2.43,9.44-5.79,12.52-10.08,3.07-4.29,4.61-9.15,4.61-14.6,0-3.36-.47-6.43-1.39-9.21"></path><path data-v-1032dfbc="" fill="#000" d="M61.41,0c-8.1,0-15.88,3.67-20.63,10.24-5.98,8.27-6.47,18.74-1.49,27.37l1.45,2.51,6.28,10.89H.39l4.04,6.99c7.86,13.62,22.39,22.01,38.12,22.01h21.44l21.94,38h-37.07l4.04,6.99c7.86,13.62,22.39,22.01,38.12,22.01h11.87l18.09,31.87c4.52,7.82,12.61,12.49,21.64,12.49s17.13-4.67,21.64-12.49l23.73-40.87h-96.76c-9.25,0-18.02-3.69-24.49-10h90.88c22.29,0,42.88-11.89,54.03-31.19l15.48-26.81H42.57c-9.25,0-18.02-3.69-24.48-10h178.06c21.99,0,42.48-11.83,53.47-30.87L266.43,0H61.41Z"></path></svg>